<?xml version="1.0" encoding="UTF-8"?>
<svg xmlns="http://www.w3.org/2000/svg" xmlns:xlink="http://www.w3.org/1999/xlink" width="100px" height="100px" viewBox="0 0 100 100" version="1.1">
<g id="surface1">
<path style=" stroke:none;fill-rule:nonzero;fill:rgb(10.196078%,13.333333%,21.176471%);fill-opacity:1;" d="M 1.878906 0.9375 C 1.878906 1.457031 1.457031 1.878906 0.9375 1.878906 C 0.421875 1.878906 0 1.457031 0 0.9375 C 0 0.421875 0.421875 0 0.9375 0 C 1.457031 0 1.878906 0.421875 1.878906 0.9375 Z M 1.878906 0.9375 "/>
<path style=" stroke:none;fill-rule:nonzero;fill:rgb(10.196078%,13.333333%,21.176471%);fill-opacity:1;" d="M 1.878906 14.957031 C 1.878906 15.472656 1.457031 15.894531 0.9375 15.894531 C 0.421875 15.894531 0 15.472656 0 14.957031 C 0 14.4375 0.421875 14.019531 0.9375 14.019531 C 1.457031 14.019531 1.878906 14.4375 1.878906 14.957031 Z M 1.878906 14.957031 "/>
<path style=" stroke:none;fill-rule:nonzero;fill:rgb(10.196078%,13.333333%,21.176471%);fill-opacity:1;" d="M 1.878906 28.972656 C 1.878906 29.492188 1.457031 29.914062 0.9375 29.914062 C 0.421875 29.914062 0 29.492188 0 28.972656 C 0 28.453125 0.421875 28.035156 0.9375 28.035156 C 1.457031 28.035156 1.878906 28.453125 1.878906 28.972656 Z M 1.878906 28.972656 "/>
<path style=" stroke:none;fill-rule:nonzero;fill:rgb(10.196078%,13.333333%,21.176471%);fill-opacity:1;" d="M 1.878906 42.992188 C 1.878906 43.511719 1.457031 43.929688 0.9375 43.929688 C 0.421875 43.929688 0 43.511719 0 42.992188 C 0 42.472656 0.421875 42.054688 0.9375 42.054688 C 1.457031 42.054688 1.878906 42.472656 1.878906 42.992188 Z M 1.878906 42.992188 "/>
<path style=" stroke:none;fill-rule:nonzero;fill:rgb(10.196078%,13.333333%,21.176471%);fill-opacity:1;" d="M 1.878906 57.007812 C 1.878906 57.527344 1.457031 57.945312 0.9375 57.945312 C 0.421875 57.945312 0 57.527344 0 57.007812 C 0 56.488281 0.421875 56.070312 0.9375 56.070312 C 1.457031 56.070312 1.878906 56.488281 1.878906 57.007812 Z M 1.878906 57.007812 "/>
<path style=" stroke:none;fill-rule:nonzero;fill:rgb(10.196078%,13.333333%,21.176471%);fill-opacity:1;" d="M 1.878906 71.027344 C 1.878906 71.546875 1.457031 71.964844 0.9375 71.964844 C 0.421875 71.964844 0 71.546875 0 71.027344 C 0 70.507812 0.421875 70.085938 0.9375 70.085938 C 1.457031 70.085938 1.878906 70.507812 1.878906 71.027344 Z M 1.878906 71.027344 "/>
<path style=" stroke:none;fill-rule:nonzero;fill:rgb(10.196078%,13.333333%,21.176471%);fill-opacity:1;" d="M 1.878906 85.042969 C 1.878906 85.5625 1.457031 85.980469 0.9375 85.980469 C 0.421875 85.980469 0 85.5625 0 85.042969 C 0 84.527344 0.421875 84.105469 0.9375 84.105469 C 1.457031 84.105469 1.878906 84.527344 1.878906 85.042969 Z M 1.878906 85.042969 "/>
<path style=" stroke:none;fill-rule:nonzero;fill:rgb(10.196078%,13.333333%,21.176471%);fill-opacity:1;" d="M 1.878906 99.0625 C 1.878906 99.578125 1.457031 100 0.9375 100 C 0.421875 100 0 99.578125 0 99.0625 C 0 98.542969 0.421875 98.121094 0.9375 98.121094 C 1.457031 98.121094 1.878906 98.542969 1.878906 99.0625 Z M 1.878906 99.0625 "/>
<path style=" stroke:none;fill-rule:nonzero;fill:rgb(10.196078%,13.333333%,21.176471%);fill-opacity:1;" d="M 15.894531 0.9375 C 15.894531 1.457031 15.472656 1.878906 14.957031 1.878906 C 14.4375 1.878906 14.019531 1.457031 14.019531 0.9375 C 14.019531 0.421875 14.4375 0 14.957031 0 C 15.472656 0 15.894531 0.421875 15.894531 0.9375 Z M 15.894531 0.9375 "/>
<path style=" stroke:none;fill-rule:nonzero;fill:rgb(10.196078%,13.333333%,21.176471%);fill-opacity:1;" d="M 15.894531 14.957031 C 15.894531 15.472656 15.472656 15.894531 14.957031 15.894531 C 14.4375 15.894531 14.019531 15.472656 14.019531 14.957031 C 14.019531 14.4375 14.4375 14.019531 14.957031 14.019531 C 15.472656 14.019531 15.894531 14.4375 15.894531 14.957031 Z M 15.894531 14.957031 "/>
<path style=" stroke:none;fill-rule:nonzero;fill:rgb(10.196078%,13.333333%,21.176471%);fill-opacity:1;" d="M 15.894531 28.972656 C 15.894531 29.492188 15.472656 29.914062 14.957031 29.914062 C 14.4375 29.914062 14.019531 29.492188 14.019531 28.972656 C 14.019531 28.453125 14.4375 28.035156 14.957031 28.035156 C 15.472656 28.035156 15.894531 28.453125 15.894531 28.972656 Z M 15.894531 28.972656 "/>
<path style=" stroke:none;fill-rule:nonzero;fill:rgb(10.196078%,13.333333%,21.176471%);fill-opacity:1;" d="M 15.894531 42.992188 C 15.894531 43.511719 15.472656 43.929688 14.957031 43.929688 C 14.4375 43.929688 14.019531 43.511719 14.019531 42.992188 C 14.019531 42.472656 14.4375 42.054688 14.957031 42.054688 C 15.472656 42.054688 15.894531 42.472656 15.894531 42.992188 Z M 15.894531 42.992188 "/>
<path style=" stroke:none;fill-rule:nonzero;fill:rgb(10.196078%,13.333333%,21.176471%);fill-opacity:1;" d="M 15.894531 57.007812 C 15.894531 57.527344 15.472656 57.945312 14.957031 57.945312 C 14.4375 57.945312 14.019531 57.527344 14.019531 57.007812 C 14.019531 56.488281 14.4375 56.070312 14.957031 56.070312 C 15.472656 56.070312 15.894531 56.488281 15.894531 57.007812 Z M 15.894531 57.007812 "/>
<path style=" stroke:none;fill-rule:nonzero;fill:rgb(10.196078%,13.333333%,21.176471%);fill-opacity:1;" d="M 15.894531 71.027344 C 15.894531 71.546875 15.472656 71.964844 14.957031 71.964844 C 14.4375 71.964844 14.019531 71.546875 14.019531 71.027344 C 14.019531 70.507812 14.4375 70.085938 14.957031 70.085938 C 15.472656 70.085938 15.894531 70.507812 15.894531 71.027344 Z M 15.894531 71.027344 "/>
<path style=" stroke:none;fill-rule:nonzero;fill:rgb(10.196078%,13.333333%,21.176471%);fill-opacity:1;" d="M 15.894531 85.042969 C 15.894531 85.5625 15.472656 85.980469 14.957031 85.980469 C 14.4375 85.980469 14.019531 85.5625 14.019531 85.042969 C 14.019531 84.527344 14.4375 84.105469 14.957031 84.105469 C 15.472656 84.105469 15.894531 84.527344 15.894531 85.042969 Z M 15.894531 85.042969 "/>
<path style=" stroke:none;fill-rule:nonzero;fill:rgb(10.196078%,13.333333%,21.176471%);fill-opacity:1;" d="M 15.894531 99.0625 C 15.894531 99.578125 15.472656 100 14.957031 100 C 14.4375 100 14.019531 99.578125 14.019531 99.0625 C 14.019531 98.542969 14.4375 98.121094 14.957031 98.121094 C 15.472656 98.121094 15.894531 98.542969 15.894531 99.0625 Z M 15.894531 99.0625 "/>
<path style=" stroke:none;fill-rule:nonzero;fill:rgb(10.196078%,13.333333%,21.176471%);fill-opacity:1;" d="M 29.914062 0.9375 C 29.914062 1.457031 29.492188 1.878906 28.972656 1.878906 C 28.453125 1.878906 28.035156 1.457031 28.035156 0.9375 C 28.035156 0.421875 28.453125 0 28.972656 0 C 29.492188 0 29.914062 0.421875 29.914062 0.9375 Z M 29.914062 0.9375 "/>
<path style=" stroke:none;fill-rule:nonzero;fill:rgb(10.196078%,13.333333%,21.176471%);fill-opacity:1;" d="M 29.914062 14.957031 C 29.914062 15.472656 29.492188 15.894531 28.972656 15.894531 C 28.453125 15.894531 28.035156 15.472656 28.035156 14.957031 C 28.035156 14.4375 28.453125 14.019531 28.972656 14.019531 C 29.492188 14.019531 29.914062 14.4375 29.914062 14.957031 Z M 29.914062 14.957031 "/>
<path style=" stroke:none;fill-rule:nonzero;fill:rgb(10.196078%,13.333333%,21.176471%);fill-opacity:1;" d="M 29.914062 28.972656 C 29.914062 29.492188 29.492188 29.914062 28.972656 29.914062 C 28.453125 29.914062 28.035156 29.492188 28.035156 28.972656 C 28.035156 28.453125 28.453125 28.035156 28.972656 28.035156 C 29.492188 28.035156 29.914062 28.453125 29.914062 28.972656 Z M 29.914062 28.972656 "/>
<path style=" stroke:none;fill-rule:nonzero;fill:rgb(10.196078%,13.333333%,21.176471%);fill-opacity:1;" d="M 29.914062 42.992188 C 29.914062 43.511719 29.492188 43.929688 28.972656 43.929688 C 28.453125 43.929688 28.035156 43.511719 28.035156 42.992188 C 28.035156 42.472656 28.453125 42.054688 28.972656 42.054688 C 29.492188 42.054688 29.914062 42.472656 29.914062 42.992188 Z M 29.914062 42.992188 "/>
<path style=" stroke:none;fill-rule:nonzero;fill:rgb(10.196078%,13.333333%,21.176471%);fill-opacity:1;" d="M 29.914062 57.007812 C 29.914062 57.527344 29.492188 57.945312 28.972656 57.945312 C 28.453125 57.945312 28.035156 57.527344 28.035156 57.007812 C 28.035156 56.488281 28.453125 56.070312 28.972656 56.070312 C 29.492188 56.070312 29.914062 56.488281 29.914062 57.007812 Z M 29.914062 57.007812 "/>
<path style=" stroke:none;fill-rule:nonzero;fill:rgb(10.196078%,13.333333%,21.176471%);fill-opacity:1;" d="M 29.914062 71.027344 C 29.914062 71.546875 29.492188 71.964844 28.972656 71.964844 C 28.453125 71.964844 28.035156 71.546875 28.035156 71.027344 C 28.035156 70.507812 28.453125 70.085938 28.972656 70.085938 C 29.492188 70.085938 29.914062 70.507812 29.914062 71.027344 Z M 29.914062 71.027344 "/>
<path style=" stroke:none;fill-rule:nonzero;fill:rgb(10.196078%,13.333333%,21.176471%);fill-opacity:1;" d="M 29.914062 85.042969 C 29.914062 85.5625 29.492188 85.980469 28.972656 85.980469 C 28.453125 85.980469 28.035156 85.5625 28.035156 85.042969 C 28.035156 84.527344 28.453125 84.105469 28.972656 84.105469 C 29.492188 84.105469 29.914062 84.527344 29.914062 85.042969 Z M 29.914062 85.042969 "/>
<path style=" stroke:none;fill-rule:nonzero;fill:rgb(10.196078%,13.333333%,21.176471%);fill-opacity:1;" d="M 29.914062 99.0625 C 29.914062 99.578125 29.492188 100 28.972656 100 C 28.453125 100 28.035156 99.578125 28.035156 99.0625 C 28.035156 98.542969 28.453125 98.121094 28.972656 98.121094 C 29.492188 98.121094 29.914062 98.542969 29.914062 99.0625 Z M 29.914062 99.0625 "/>
<path style=" stroke:none;fill-rule:nonzero;fill:rgb(10.196078%,13.333333%,21.176471%);fill-opacity:1;" d="M 43.929688 0.9375 C 43.929688 1.457031 43.511719 1.878906 42.992188 1.878906 C 42.472656 1.878906 42.054688 1.457031 42.054688 0.9375 C 42.054688 0.421875 42.472656 0 42.992188 0 C 43.511719 0 43.929688 0.421875 43.929688 0.9375 Z M 43.929688 0.9375 "/>
<path style=" stroke:none;fill-rule:nonzero;fill:rgb(10.196078%,13.333333%,21.176471%);fill-opacity:1;" d="M 43.929688 14.957031 C 43.929688 15.472656 43.511719 15.894531 42.992188 15.894531 C 42.472656 15.894531 42.054688 15.472656 42.054688 14.957031 C 42.054688 14.4375 42.472656 14.019531 42.992188 14.019531 C 43.511719 14.019531 43.929688 14.4375 43.929688 14.957031 Z M 43.929688 14.957031 "/>
<path style=" stroke:none;fill-rule:nonzero;fill:rgb(10.196078%,13.333333%,21.176471%);fill-opacity:1;" d="M 43.929688 28.972656 C 43.929688 29.492188 43.511719 29.914062 42.992188 29.914062 C 42.472656 29.914062 42.054688 29.492188 42.054688 28.972656 C 42.054688 28.453125 42.472656 28.035156 42.992188 28.035156 C 43.511719 28.035156 43.929688 28.453125 43.929688 28.972656 Z M 43.929688 28.972656 "/>
<path style=" stroke:none;fill-rule:nonzero;fill:rgb(10.196078%,13.333333%,21.176471%);fill-opacity:1;" d="M 43.929688 42.992188 C 43.929688 43.511719 43.511719 43.929688 42.992188 43.929688 C 42.472656 43.929688 42.054688 43.511719 42.054688 42.992188 C 42.054688 42.472656 42.472656 42.054688 42.992188 42.054688 C 43.511719 42.054688 43.929688 42.472656 43.929688 42.992188 Z M 43.929688 42.992188 "/>
<path style=" stroke:none;fill-rule:nonzero;fill:rgb(10.196078%,13.333333%,21.176471%);fill-opacity:1;" d="M 43.929688 57.007812 C 43.929688 57.527344 43.511719 57.945312 42.992188 57.945312 C 42.472656 57.945312 42.054688 57.527344 42.054688 57.007812 C 42.054688 56.488281 42.472656 56.070312 42.992188 56.070312 C 43.511719 56.070312 43.929688 56.488281 43.929688 57.007812 Z M 43.929688 57.007812 "/>
<path style=" stroke:none;fill-rule:nonzero;fill:rgb(10.196078%,13.333333%,21.176471%);fill-opacity:1;" d="M 43.929688 71.027344 C 43.929688 71.546875 43.511719 71.964844 42.992188 71.964844 C 42.472656 71.964844 42.054688 71.546875 42.054688 71.027344 C 42.054688 70.507812 42.472656 70.085938 42.992188 70.085938 C 43.511719 70.085938 43.929688 70.507812 43.929688 71.027344 Z M 43.929688 71.027344 "/>
<path style=" stroke:none;fill-rule:nonzero;fill:rgb(10.196078%,13.333333%,21.176471%);fill-opacity:1;" d="M 43.929688 85.042969 C 43.929688 85.5625 43.511719 85.980469 42.992188 85.980469 C 42.472656 85.980469 42.054688 85.5625 42.054688 85.042969 C 42.054688 84.527344 42.472656 84.105469 42.992188 84.105469 C 43.511719 84.105469 43.929688 84.527344 43.929688 85.042969 Z M 43.929688 85.042969 "/>
<path style=" stroke:none;fill-rule:nonzero;fill:rgb(10.196078%,13.333333%,21.176471%);fill-opacity:1;" d="M 43.929688 99.0625 C 43.929688 99.578125 43.511719 100 42.992188 100 C 42.472656 100 42.054688 99.578125 42.054688 99.0625 C 42.054688 98.542969 42.472656 98.121094 42.992188 98.121094 C 43.511719 98.121094 43.929688 98.542969 43.929688 99.0625 Z M 43.929688 99.0625 "/>
<path style=" stroke:none;fill-rule:nonzero;fill:rgb(10.196078%,13.333333%,21.176471%);fill-opacity:1;" d="M 57.945312 0.9375 C 57.945312 1.457031 57.527344 1.878906 57.007812 1.878906 C 56.488281 1.878906 56.070312 1.457031 56.070312 0.9375 C 56.070312 0.421875 56.488281 0 57.007812 0 C 57.527344 0 57.945312 0.421875 57.945312 0.9375 Z M 57.945312 0.9375 "/>
<path style=" stroke:none;fill-rule:nonzero;fill:rgb(10.196078%,13.333333%,21.176471%);fill-opacity:1;" d="M 57.945312 14.957031 C 57.945312 15.472656 57.527344 15.894531 57.007812 15.894531 C 56.488281 15.894531 56.070312 15.472656 56.070312 14.957031 C 56.070312 14.4375 56.488281 14.019531 57.007812 14.019531 C 57.527344 14.019531 57.945312 14.4375 57.945312 14.957031 Z M 57.945312 14.957031 "/>
<path style=" stroke:none;fill-rule:nonzero;fill:rgb(10.196078%,13.333333%,21.176471%);fill-opacity:1;" d="M 57.945312 28.972656 C 57.945312 29.492188 57.527344 29.914062 57.007812 29.914062 C 56.488281 29.914062 56.070312 29.492188 56.070312 28.972656 C 56.070312 28.453125 56.488281 28.035156 57.007812 28.035156 C 57.527344 28.035156 57.945312 28.453125 57.945312 28.972656 Z M 57.945312 28.972656 "/>
<path style=" stroke:none;fill-rule:nonzero;fill:rgb(10.196078%,13.333333%,21.176471%);fill-opacity:1;" d="M 57.945312 42.992188 C 57.945312 43.511719 57.527344 43.929688 57.007812 43.929688 C 56.488281 43.929688 56.070312 43.511719 56.070312 42.992188 C 56.070312 42.472656 56.488281 42.054688 57.007812 42.054688 C 57.527344 42.054688 57.945312 42.472656 57.945312 42.992188 Z M 57.945312 42.992188 "/>
<path style=" stroke:none;fill-rule:nonzero;fill:rgb(10.196078%,13.333333%,21.176471%);fill-opacity:1;" d="M 57.945312 57.007812 C 57.945312 57.527344 57.527344 57.945312 57.007812 57.945312 C 56.488281 57.945312 56.070312 57.527344 56.070312 57.007812 C 56.070312 56.488281 56.488281 56.070312 57.007812 56.070312 C 57.527344 56.070312 57.945312 56.488281 57.945312 57.007812 Z M 57.945312 57.007812 "/>
<path style=" stroke:none;fill-rule:nonzero;fill:rgb(10.196078%,13.333333%,21.176471%);fill-opacity:1;" d="M 57.945312 71.027344 C 57.945312 71.546875 57.527344 71.964844 57.007812 71.964844 C 56.488281 71.964844 56.070312 71.546875 56.070312 71.027344 C 56.070312 70.507812 56.488281 70.085938 57.007812 70.085938 C 57.527344 70.085938 57.945312 70.507812 57.945312 71.027344 Z M 57.945312 71.027344 "/>
<path style=" stroke:none;fill-rule:nonzero;fill:rgb(10.196078%,13.333333%,21.176471%);fill-opacity:1;" d="M 57.945312 85.042969 C 57.945312 85.5625 57.527344 85.980469 57.007812 85.980469 C 56.488281 85.980469 56.070312 85.5625 56.070312 85.042969 C 56.070312 84.527344 56.488281 84.105469 57.007812 84.105469 C 57.527344 84.105469 57.945312 84.527344 57.945312 85.042969 Z M 57.945312 85.042969 "/>
<path style=" stroke:none;fill-rule:nonzero;fill:rgb(10.196078%,13.333333%,21.176471%);fill-opacity:1;" d="M 57.945312 99.0625 C 57.945312 99.578125 57.527344 100 57.007812 100 C 56.488281 100 56.070312 99.578125 56.070312 99.0625 C 56.070312 98.542969 56.488281 98.121094 57.007812 98.121094 C 57.527344 98.121094 57.945312 98.542969 57.945312 99.0625 Z M 57.945312 99.0625 "/>
<path style=" stroke:none;fill-rule:nonzero;fill:rgb(10.196078%,13.333333%,21.176471%);fill-opacity:1;" d="M 71.964844 0.9375 C 71.964844 1.457031 71.546875 1.878906 71.027344 1.878906 C 70.507812 1.878906 70.085938 1.457031 70.085938 0.9375 C 70.085938 0.421875 70.507812 0 71.027344 0 C 71.546875 0 71.964844 0.421875 71.964844 0.9375 Z M 71.964844 0.9375 "/>
<path style=" stroke:none;fill-rule:nonzero;fill:rgb(10.196078%,13.333333%,21.176471%);fill-opacity:1;" d="M 71.964844 14.957031 C 71.964844 15.472656 71.546875 15.894531 71.027344 15.894531 C 70.507812 15.894531 70.085938 15.472656 70.085938 14.957031 C 70.085938 14.4375 70.507812 14.019531 71.027344 14.019531 C 71.546875 14.019531 71.964844 14.4375 71.964844 14.957031 Z M 71.964844 14.957031 "/>
<path style=" stroke:none;fill-rule:nonzero;fill:rgb(10.196078%,13.333333%,21.176471%);fill-opacity:1;" d="M 71.964844 28.972656 C 71.964844 29.492188 71.546875 29.914062 71.027344 29.914062 C 70.507812 29.914062 70.085938 29.492188 70.085938 28.972656 C 70.085938 28.453125 70.507812 28.035156 71.027344 28.035156 C 71.546875 28.035156 71.964844 28.453125 71.964844 28.972656 Z M 71.964844 28.972656 "/>
<path style=" stroke:none;fill-rule:nonzero;fill:rgb(10.196078%,13.333333%,21.176471%);fill-opacity:1;" d="M 71.964844 42.992188 C 71.964844 43.511719 71.546875 43.929688 71.027344 43.929688 C 70.507812 43.929688 70.085938 43.511719 70.085938 42.992188 C 70.085938 42.472656 70.507812 42.054688 71.027344 42.054688 C 71.546875 42.054688 71.964844 42.472656 71.964844 42.992188 Z M 71.964844 42.992188 "/>
<path style=" stroke:none;fill-rule:nonzero;fill:rgb(10.196078%,13.333333%,21.176471%);fill-opacity:1;" d="M 71.964844 57.007812 C 71.964844 57.527344 71.546875 57.945312 71.027344 57.945312 C 70.507812 57.945312 70.085938 57.527344 70.085938 57.007812 C 70.085938 56.488281 70.507812 56.070312 71.027344 56.070312 C 71.546875 56.070312 71.964844 56.488281 71.964844 57.007812 Z M 71.964844 57.007812 "/>
<path style=" stroke:none;fill-rule:nonzero;fill:rgb(10.196078%,13.333333%,21.176471%);fill-opacity:1;" d="M 71.964844 71.027344 C 71.964844 71.546875 71.546875 71.964844 71.027344 71.964844 C 70.507812 71.964844 70.085938 71.546875 70.085938 71.027344 C 70.085938 70.507812 70.507812 70.085938 71.027344 70.085938 C 71.546875 70.085938 71.964844 70.507812 71.964844 71.027344 Z M 71.964844 71.027344 "/>
<path style=" stroke:none;fill-rule:nonzero;fill:rgb(10.196078%,13.333333%,21.176471%);fill-opacity:1;" d="M 71.964844 85.042969 C 71.964844 85.5625 71.546875 85.980469 71.027344 85.980469 C 70.507812 85.980469 70.085938 85.5625 70.085938 85.042969 C 70.085938 84.527344 70.507812 84.105469 71.027344 84.105469 C 71.546875 84.105469 71.964844 84.527344 71.964844 85.042969 Z M 71.964844 85.042969 "/>
<path style=" stroke:none;fill-rule:nonzero;fill:rgb(10.196078%,13.333333%,21.176471%);fill-opacity:1;" d="M 71.964844 99.0625 C 71.964844 99.578125 71.546875 100 71.027344 100 C 70.507812 100 70.085938 99.578125 70.085938 99.0625 C 70.085938 98.542969 70.507812 98.121094 71.027344 98.121094 C 71.546875 98.121094 71.964844 98.542969 71.964844 99.0625 Z M 71.964844 99.0625 "/>
<path style=" stroke:none;fill-rule:nonzero;fill:rgb(10.196078%,13.333333%,21.176471%);fill-opacity:1;" d="M 85.980469 0.9375 C 85.980469 1.457031 85.5625 1.878906 85.042969 1.878906 C 84.527344 1.878906 84.105469 1.457031 84.105469 0.9375 C 84.105469 0.421875 84.527344 0 85.042969 0 C 85.5625 0 85.980469 0.421875 85.980469 0.9375 Z M 85.980469 0.9375 "/>
<path style=" stroke:none;fill-rule:nonzero;fill:rgb(10.196078%,13.333333%,21.176471%);fill-opacity:1;" d="M 85.980469 14.957031 C 85.980469 15.472656 85.5625 15.894531 85.042969 15.894531 C 84.527344 15.894531 84.105469 15.472656 84.105469 14.957031 C 84.105469 14.4375 84.527344 14.019531 85.042969 14.019531 C 85.5625 14.019531 85.980469 14.4375 85.980469 14.957031 Z M 85.980469 14.957031 "/>
<path style=" stroke:none;fill-rule:nonzero;fill:rgb(10.196078%,13.333333%,21.176471%);fill-opacity:1;" d="M 85.980469 28.972656 C 85.980469 29.492188 85.5625 29.914062 85.042969 29.914062 C 84.527344 29.914062 84.105469 29.492188 84.105469 28.972656 C 84.105469 28.453125 84.527344 28.035156 85.042969 28.035156 C 85.5625 28.035156 85.980469 28.453125 85.980469 28.972656 Z M 85.980469 28.972656 "/>
<path style=" stroke:none;fill-rule:nonzero;fill:rgb(10.196078%,13.333333%,21.176471%);fill-opacity:1;" d="M 85.980469 42.992188 C 85.980469 43.511719 85.5625 43.929688 85.042969 43.929688 C 84.527344 43.929688 84.105469 43.511719 84.105469 42.992188 C 84.105469 42.472656 84.527344 42.054688 85.042969 42.054688 C 85.5625 42.054688 85.980469 42.472656 85.980469 42.992188 Z M 85.980469 42.992188 "/>
<path style=" stroke:none;fill-rule:nonzero;fill:rgb(10.196078%,13.333333%,21.176471%);fill-opacity:1;" d="M 85.980469 57.007812 C 85.980469 57.527344 85.5625 57.945312 85.042969 57.945312 C 84.527344 57.945312 84.105469 57.527344 84.105469 57.007812 C 84.105469 56.488281 84.527344 56.070312 85.042969 56.070312 C 85.5625 56.070312 85.980469 56.488281 85.980469 57.007812 Z M 85.980469 57.007812 "/>
<path style=" stroke:none;fill-rule:nonzero;fill:rgb(10.196078%,13.333333%,21.176471%);fill-opacity:1;" d="M 85.980469 71.027344 C 85.980469 71.546875 85.5625 71.964844 85.042969 71.964844 C 84.527344 71.964844 84.105469 71.546875 84.105469 71.027344 C 84.105469 70.507812 84.527344 70.085938 85.042969 70.085938 C 85.5625 70.085938 85.980469 70.507812 85.980469 71.027344 Z M 85.980469 71.027344 "/>
<path style=" stroke:none;fill-rule:nonzero;fill:rgb(10.196078%,13.333333%,21.176471%);fill-opacity:1;" d="M 85.980469 85.042969 C 85.980469 85.5625 85.5625 85.980469 85.042969 85.980469 C 84.527344 85.980469 84.105469 85.5625 84.105469 85.042969 C 84.105469 84.527344 84.527344 84.105469 85.042969 84.105469 C 85.5625 84.105469 85.980469 84.527344 85.980469 85.042969 Z M 85.980469 85.042969 "/>
<path style=" stroke:none;fill-rule:nonzero;fill:rgb(10.196078%,13.333333%,21.176471%);fill-opacity:1;" d="M 85.980469 99.0625 C 85.980469 99.578125 85.5625 100 85.042969 100 C 84.527344 100 84.105469 99.578125 84.105469 99.0625 C 84.105469 98.542969 84.527344 98.121094 85.042969 98.121094 C 85.5625 98.121094 85.980469 98.542969 85.980469 99.0625 Z M 85.980469 99.0625 "/>
<path style=" stroke:none;fill-rule:nonzero;fill:rgb(10.196078%,13.333333%,21.176471%);fill-opacity:1;" d="M 100 0.9375 C 100 1.457031 99.578125 1.878906 99.0625 1.878906 C 98.542969 1.878906 98.121094 1.457031 98.121094 0.9375 C 98.121094 0.421875 98.542969 0 99.0625 0 C 99.578125 0 100 0.421875 100 0.9375 Z M 100 0.9375 "/>
<path style=" stroke:none;fill-rule:nonzero;fill:rgb(10.196078%,13.333333%,21.176471%);fill-opacity:1;" d="M 100 14.957031 C 100 15.472656 99.578125 15.894531 99.0625 15.894531 C 98.542969 15.894531 98.121094 15.472656 98.121094 14.957031 C 98.121094 14.4375 98.542969 14.019531 99.0625 14.019531 C 99.578125 14.019531 100 14.4375 100 14.957031 Z M 100 14.957031 "/>
<path style=" stroke:none;fill-rule:nonzero;fill:rgb(10.196078%,13.333333%,21.176471%);fill-opacity:1;" d="M 100 28.972656 C 100 29.492188 99.578125 29.914062 99.0625 29.914062 C 98.542969 29.914062 98.121094 29.492188 98.121094 28.972656 C 98.121094 28.453125 98.542969 28.035156 99.0625 28.035156 C 99.578125 28.035156 100 28.453125 100 28.972656 Z M 100 28.972656 "/>
<path style=" stroke:none;fill-rule:nonzero;fill:rgb(10.196078%,13.333333%,21.176471%);fill-opacity:1;" d="M 100 42.992188 C 100 43.511719 99.578125 43.929688 99.0625 43.929688 C 98.542969 43.929688 98.121094 43.511719 98.121094 42.992188 C 98.121094 42.472656 98.542969 42.054688 99.0625 42.054688 C 99.578125 42.054688 100 42.472656 100 42.992188 Z M 100 42.992188 "/>
<path style=" stroke:none;fill-rule:nonzero;fill:rgb(10.196078%,13.333333%,21.176471%);fill-opacity:1;" d="M 100 57.007812 C 100 57.527344 99.578125 57.945312 99.0625 57.945312 C 98.542969 57.945312 98.121094 57.527344 98.121094 57.007812 C 98.121094 56.488281 98.542969 56.070312 99.0625 56.070312 C 99.578125 56.070312 100 56.488281 100 57.007812 Z M 100 57.007812 "/>
<path style=" stroke:none;fill-rule:nonzero;fill:rgb(10.196078%,13.333333%,21.176471%);fill-opacity:1;" d="M 100 71.027344 C 100 71.546875 99.578125 71.964844 99.0625 71.964844 C 98.542969 71.964844 98.121094 71.546875 98.121094 71.027344 C 98.121094 70.507812 98.542969 70.085938 99.0625 70.085938 C 99.578125 70.085938 100 70.507812 100 71.027344 Z M 100 71.027344 "/>
<path style=" stroke:none;fill-rule:nonzero;fill:rgb(10.196078%,13.333333%,21.176471%);fill-opacity:1;" d="M 100 85.042969 C 100 85.5625 99.578125 85.980469 99.0625 85.980469 C 98.542969 85.980469 98.121094 85.5625 98.121094 85.042969 C 98.121094 84.527344 98.542969 84.105469 99.0625 84.105469 C 99.578125 84.105469 100 84.527344 100 85.042969 Z M 100 85.042969 "/>
<path style=" stroke:none;fill-rule:nonzero;fill:rgb(10.196078%,13.333333%,21.176471%);fill-opacity:1;" d="M 100 99.0625 C 100 99.578125 99.578125 100 99.0625 100 C 98.542969 100 98.121094 99.578125 98.121094 99.0625 C 98.121094 98.542969 98.542969 98.121094 99.0625 98.121094 C 99.578125 98.121094 100 98.542969 100 99.0625 Z M 100 99.0625 "/>
</g>
</svg>
